<svg version="1" xmlns="http://www.w3.org/2000/svg" width="2666.667" height="2666.667" viewBox="0 0 2000.000000 2000.000000"><path d="M961.8.5c-.2.1-6.8.6-14.8 1s-16.1.8-18 1c-1.9.1-7.5.6-12.5.9-4.9.4-10.9.9-13.2 1.1-2.4.3-6.4.7-9 1-4.3.5-7.8.8-16.8 1.9-4.2.5-16.4 2.2-23.2 3.1-5.5.8-9.7 1.5-12.3 1.9-1.4.3-4.3.7-6.4 1.1-2.1.3-4.8.7-6 1-1.2.2-3.7.7-5.6.9-1.9.3-12.5 2.4-23.5 4.6-11 2.3-21.1 4.3-22.5 4.6-10.7 2.1-48.7 12.2-72 19.2-23 6.9-62.7 20.9-78.5 27.7-1.6.7-7 2.9-12 5-8.9 3.6-10.4 4.2-20 8.5-52.5 23.3-101.6 50.3-148.9 81.9-12 8-23.1 15.5-24.6 16.6-1.6 1.1-6.6 4.7-11.1 8-4.6 3.2-8.6 6.2-8.9 6.5-.3.3-5.2 4.1-11 8.5-8.5 6.4-26.3 20.8-41.9 34-3.4 2.8-20.7 18-26.1 22.9-8.8 8-52.7 52.3-61 61.5-4.7 5.2-10.3 11.5-12.6 14-5.4 6-22.1 25.7-25.9 30.5-1.6 2.1-5.2 6.6-7.9 10C162.1 446.2 113.4 528.6 79.1 610c-4.5 10.7-8.6 20.3-9.1 21.2-.6 1-1 2.3-1 2.9 0 .6-.6 2.5-1.4 4.2-10.4 23.1-32.3 94-41.1 132.7-4 17.4-7.7 35.1-10 47.7-.4 2.3-3 18.2-5.1 30.8-.2 1.6-.6 4.1-.9 5.5-.2 1.4-.7 4.4-1 6.7-.3 2.4-.7 6.1-1 8.2-.3 2.1-.8 6.1-1 8.7-.3 2.7-.7 6-1 7.4-.2 1.4-.7 6.1-1.1 10.5-.3 4.4-.8 8.8-.9 9.7-.2.9-.6 6.1-1 11.5-.3 5.4-.8 11.4-1 13.3-3.1 27.3-2.6 114.1 1 154.5.2 3.3.7 9.1 1 13 .3 3.8.8 7.7 1 8.5.2.8.7 4.6 1 8.5.3 3.8 1 9.7 1.5 13 .5 3.3 1.2 8.5 1.5 11.5.3 3 .8 6.2 1 7 .2.8.6 3.5.9 6 .3 2.5.8 5.4 1 6.5.2 1.1.9 5.4 1.6 9.5.6 4.1 1.8 10.9 2.6 15 .9 4.1 1.7 8.6 1.9 10 .5 3.6 4.2 20.9 7 32.5 1.3 5.5 2.6 11.1 2.9 12.5.2 1.4 1.9 7.9 3.6 14.5 13.2 50.2 32.6 106.4 50.4 145.8 1.4 3.2 2.6 6 2.6 6.2 0 1.4 24.3 51.1 32.2 66 8.6 16 19.2 34.5 28.1 49 4.6 7.5 22 34.9 22.9 36 .5.5 5.2 7.3 10.5 15 18.8 27.3 55.4 74 69.8 89.1.5.6 3.9 4.4 7.5 8.4 25.2 28.4 65.5 67.6 97 94.1 4.1 3.5 7.7 6.6 8 6.9.9 1 33.4 26.4 41 32.1 96 71.4 203.4 124.9 318 158.3 17.2 5 56.4 14.9 67.5 17 1.1.2 7.6 1.6 14.5 3 6.9 1.3 13.6 2.7 15 2.9 4.7.9 10.5 2 12.5 2.3 1.1.3 4.9.9 8.5 1.4 3.6.5 7.4 1.1 8.5 1.4 2.1.4 7.7 1.1 16 2.2 2.8.3 5.8.8 6.7.9.9.2 4.8.7 8.5 1 3.7.4 7 .9 7.3 1 .3.2 4.6.6 9.5 1 5 .4 10.1.8 11.5 1 2.3.4 9.7 1 22.5 2 35.6 2.7 107.4 2.7 142.5.1 11.5-.9 20.6-1.7 24-2.1 1.9-.2 6.7-.7 10.5-1 3.9-.3 8.4-.8 10-1 4.9-.8 9.6-1.3 16-2 3.3-.4 6.7-.8 7.5-1 .8-.2 3.8-.7 6.5-1 9.4-1.1 46-7.6 60-10.6 7.7-1.7 15.1-3.3 16.5-3.5 13.6-2.6 54.2-13.5 78-21 18.6-5.9 52.1-17.5 58.5-20.3 1.1-.5 8.5-3.5 16.5-6.7 61.2-24.4 121.3-56.1 178-93.7 18.5-12.3 45.1-31.1 51.5-36.4.6-.5 3.9-3.1 7.5-5.8 10.8-8.2 36-28.9 46-37.9 2-1.7 5.6-4.9 8-7 21.9-19.1 57.7-54.8 76.5-76 3.3-3.8 6.9-7.8 8.1-9 2.9-3 19.2-22.1 23.9-28.1 2.2-2.8 4.2-5.2 4.5-5.5 1.5-1.4 23.6-30.1 29.5-38.3 10.5-14.5 35.5-51.3 35.5-52.2 0-.2 1.3-2.4 2.9-4.7 18.4-27.4 49.1-84.8 67.4-125.8 4.7-10.5 13.7-31.9 13.7-32.5 0-.3.8-2.4 1.9-4.8 1-2.3 3.5-8.7 5.5-14.2 2.1-5.5 4.2-10.9 4.7-12 2-4.7 16.2-48.3 20.4-63 7.8-27.1 19.9-77.5 22-92 .4-2.2.8-4.7 1.1-5.6.2-.9.7-3.4 1-5.5.2-2.2.6-4.6.9-5.4.3-.8.7-3.2.9-5.4.3-2.1.7-4.6 1-5.5.3-.9.8-4.3 1.1-7.6.4-3.2.8-6.2 1-6.5.2-.3.6-3.1.9-6.1.3-3 .8-6.4 1-7.6.3-1.2.8-5.3 1.1-9 .4-3.7.9-7.5 1-8.3.2-1.3 1.2-10.3 2.1-19.5.1-1.7.5-6.8.9-11.5.3-4.7.8-10.4 1-12.7 2.6-26.2 2.6-121.6 0-140.7-.2-1.7-.7-7.4-1-12.6-.3-5.2-.7-10.4-.9-11.5-.2-1.1-.7-6-1.1-10.8-.3-4.9-.8-9.8-1-11-.2-1.2-.6-4.5-1-7.2-1.6-12.8-2.6-20.2-2.9-22.3-.2-1-.7-3.9-1-6.5-.4-2.7-.9-5.7-1.1-6.7-.2-.9-.6-3.5-.9-5.6-5.5-34.9-15.2-78.4-25.6-114.4-12.7-43.7-32.4-97.8-47.8-131-1.6-3.6-4.3-9.4-6-13-4.8-10.6-17.8-36.7-23.5-47.5-14.1-26.8-33.8-59.7-51.5-86.3-28.9-43.3-58.2-80.6-96.7-123.1-9-9.9-50.7-51.5-61.4-61.1-5.1-4.7-10.5-9.6-12-10.9-4.5-4.1-26.1-22.3-35.6-29.9-4.9-4-9.7-7.8-10.5-8.5-.8-.7-8.5-6.4-17-12.8-110.6-82.8-234.4-140.6-370.5-172.8-12.1-2.8-15.8-3.6-21-4.6-1.1-.2-2.9-.6-4-.9-3.4-.7-23.9-4.7-26.5-5.1-3.5-.5-20.9-3.4-24-4-1.4-.2-4.3-.7-6.5-1-5.7-.7-19.6-2.6-22.5-3-1.4-.2-5.4-.6-9-1-3.6-.4-7.8-.9-9.5-1.1-1.6-.2-6.4-.6-10.5-1-4.1-.3-9.1-.7-11-.9-1.9-.2-8-.7-13.5-1-5.5-.4-12.2-.9-15-1.1-5.6-.6-93.2-1.4-93.7-.9zm91.7 149.9c2.2.2 8.1.7 13 1 5 .4 10.1.8 11.5 1 1.4.3 6.1.7 10.5 1.1 4.4.4 8.9.9 10 1 1.1.2 4.5.6 7.6 1 3.1.3 6.5.7 7.5.9 1.1.2 4.4.7 7.4 1.1 3 .4 6.4.9 7.5 1.1 1.1.2 3.8.6 6 .9 4.5.6 5.8.8 21 3.6 60.7 11.2 122.9 30.1 180.5 54.9 12.1 5.2 47.7 21.9 53 24.9.8.4 5.6 3 10.5 5.6 7.5 4.1 18.4 10.2 36.1 20.5 16.6 9.6 44.1 27.9 65.9 43.8 10.7 7.7 39.6 30.2 41.5 32.2.3.3 5.2 4.5 11 9.5 63.2 54 124.6 125.4 167.9 195.5 8.7 14.1 14.4 23.6 18.1 30.5 1.6 2.7 4.7 8.4 7 12.5 6.9 12.4 26.2 51.6 31.9 65 2.9 6.9 6 14.1 6.8 16 .8 1.9 1.9 4.4 2.4 5.5 8.3 19.6 22.8 61.6 30.3 88 3.2 11.6 12 46.3 13 51.5.2 1.4.9 4.5 1.4 7 .6 2.5 1.3 6.2 1.6 8.4.4 2.1.8 4.1 1 4.5.2.3.7 3.1 1.1 6.1.4 3 .9 5.8 1.1 6.1.2.4.6 2.2.8 4 .3 1.9.7 4.9 1 6.6.9 5 1.4 8.1 2.6 16.8 1.1 8.4 1.6 11.7 2.4 17.5.3 1.9.8 6.2 1.1 9.5.3 3.3.8 7.1 1 8.5.2 1.4.6 6.3 1 11s.8 10.1 1 12c2.7 27.7 2.7 101.5 0 128-.2 1.9-.6 7.1-.9 11.5-.4 4.4-.9 9.8-1.1 12-.3 2.2-1 8-1.5 13-.6 4.9-1.3 10.1-1.5 11.5-.2 1.4-.6 4.7-1 7.5-.9 7.5-1.6 11.8-2 13.5-.2.8-.7 3.5-1 6-.3 2.5-.8 5.6-1 7-.3 1.4-.7 3.8-1 5.5-.3 1.6-.7 3.9-.9 5-.4 1.9-5.3 25.7-6.2 30-4.3 21.9-18.6 70.6-29.7 101.5-15 41.8-41.2 98.9-58.7 128-.5.8-2.4 4.2-4.3 7.5s-4.3 7.6-5.4 9.5c-5.3 9.3-22.6 36-34 52.5-10.5 15.3-40 53.8-46.5 60.6-.7.8-4 4.6-7.3 8.4-3.3 3.9-9.1 10.6-13 14.9-8 9.1-45.9 47.4-55.1 55.6-11.2 10.2-15 13.5-20.9 18.5-3.3 2.7-7.7 6.6-10 8.5-6.1 5.5-31.1 25.1-39.6 31.3-1.3.9-6 4.3-10.4 7.5-9.4 6.9-30.9 21.4-37.9 25.7-2.7 1.7-5.9 3.7-7.2 4.5-2.6 1.7-30.6 18.3-37.4 22.2-9.9 5.6-29.5 15.8-30.7 15.9-.5.1-2 1-3.5 2-1.4 1-2.8 1.9-3.1 1.9-.3 0-6.7 3-14.3 6.6-73.2 34.8-160.9 61-240.4 71.9l-14 2c-1.4.2-5.4.7-9 1-3.6.4-7.3.9-8.3 1.1-1 .2-5.5.6-10 .9-4.5.3-9.8.8-11.7 1-25.3 2.7-113.9 2.7-136.5-.1-1.6-.2-6.4-.6-10.5-.9-4.1-.3-10.6-1-14.5-1.5-3.8-.5-9.1-1.2-11.7-1.5-6.8-.7-14-1.7-15.9-2-.9-.2-4-.6-6.9-1-2.9-.4-6.2-.9-7.4-1.1-1.2-.2-3.2-.6-4.6-.8-1.4-.3-4.1-.7-6-1-4.9-.7-33.2-6.4-35-7-.8-.3-3.1-.8-5-1.1-1.9-.3-5.3-1-7.5-1.5-2.2-.6-5.1-1.3-6.5-1.6-19-3.8-82.9-23.6-101.5-31.3-1.1-.5-7.4-3-14-5.6-40.3-16-85.1-38.3-124-61.8-21.9-13.2-57.6-37.3-69-46.5-.5-.4-3.7-2.8-7-5.2-3.3-2.5-6.2-4.7-6.5-5-.3-.3-2.3-1.9-4.5-3.5-10.1-7.5-36.2-29.8-52-44.5-19.7-18.3-54.9-55-69.8-72.8-1.2-1.4-3.6-4.2-5.3-6.1-15.8-18.4-55.1-71.8-60.4-81.9-.6-1.3-1.9-3.2-2.8-4.3-.9-1-2.7-3.8-4.1-6.3-2.7-4.6-16.2-27.3-18.9-31.6-10.8-17.4-36.3-69.6-47.2-96.5-1.8-4.4-3.8-9.4-4.5-11-4.7-10.9-18.5-50.3-23.3-67-6.2-20.9-12.6-45-14.6-54.5-5.4-25.8-8.6-41.7-9.1-45.2-.3-2.4-1-6.6-1.5-9.3-.6-2.8-1.2-6.8-1.5-9-.2-2.2-.7-5.8-1.1-8-1-6.7-1.2-8.8-1.9-14.5-.3-3-.8-7.1-1-9-1.8-13.6-2.5-22.4-4.1-49-1.6-25.7-.9-91.1 1.1-111 .2-1.9.6-7.1 1-11.5.6-7.7 1-11.8 2-19.5.2-1.9.7-6 1.1-9 .3-3 .8-6.9 1-8.5.2-1.7.7-5 .9-7.5.7-5.1 2.2-15.3 3-19 .3-1.4.7-4.2 1-6.2.3-2 .9-5.6 1.4-8 .5-2.4 1.2-5.9 1.5-7.8.3-2 1.9-9.9 3.6-17.5 1.7-7.7 3.3-15.1 3.6-16.4.3-1.3 2.1-8.5 4-16s4.2-16.3 5-19.6c.9-3.3 1.8-6.7 2.1-7.5.3-.8.7-2 .8-2.5 1.4-5.6 13.7-42.2 19.7-58.5 15.9-43.2 43.5-100.4 67.3-139.5 2.4-3.9 6.2-10.2 8.5-14 4-6.6 25.5-38.5 30.3-45 27.4-37 49.7-64 72.7-87.8 19-19.8 36.3-36.7 50.9-49.7 4.7-4.1 9.2-8.2 10.1-9 .8-.8 3.8-3.3 6.4-5.5 2.7-2.2 5.4-4.5 6-5.1 2.4-2.3 30.7-24.5 39.6-31.1 16.2-12 46.3-32.4 60.2-40.8 32.6-19.8 81-44.8 111.3-57.5 9.4-3.9 17.9-7.5 19-8 8.2-3.8 46.9-17.2 71.5-24.8 21.2-6.6 66.7-17.6 81-19.7 2.4-.4 4.7-.8 5-1 .7-.4 35.1-6.1 41.5-6.9 2.2-.2 8.1-1 13-1.6 9.1-1.1 11.4-1.4 24-2.5 3.9-.3 8.6-.8 10.5-1 1.9-.2 9.1-.7 16-1 6.9-.4 12.7-.8 12.9-1 .5-.6 87.8.3 92.6.9z"/><path d="M648.7 553.4c-.3 1-.1 926.7.2 930.8.1 1.5 13.2 1.6 189.4 1.3 104-.2 191-.6 193.2-.8 2.2-.3 8.5-.8 14-1.2 5.5-.3 11.1-.8 12.5-1 3.2-.5 12.5-1.6 17-2 5-.4 20.2-2.7 34-5 4.7-.8 22.5-4.6 26-5.5 1.9-.5 4.6-1.1 6-1.4 11-2.1 39.7-11.1 56.8-17.8 14.3-5.6 39.4-18.2 51.7-25.9 27.4-17.2 51.7-39.3 69.8-63.8 10.3-13.9 24.2-39.2 29.2-53.1 7.5-20.9 12.7-40.3 14.9-56 .3-1.9.8-5.1 1.1-7 3.4-22.5 4-69.8 1.1-84.5-.2-1.1-.7-4-1-6.5-.3-2.5-.8-5.4-1-6.5-.2-1.1-.7-4-1.1-6.5-1.2-8.2-8.4-31.8-13-43.2-21.3-52.4-62.6-92.5-115.7-112.2-11-4.1-28.6-8.8-38.1-10.2-2.1-.3-4.4-.7-5-.8-2-.3-3.8-1.7-3.2-2.5.2-.5 2.3-1.1 4.6-1.5 6-1 25.3-7.3 32.8-10.9 12-5.6 24.1-12.8 34.4-20.5 10.4-7.7 29.3-25.8 36.3-34.7 2.1-2.8 4.2-5.2 4.5-5.5 1.7-1.6 12.7-19.2 16.8-27.1 6.8-13 14-33.1 16.5-45.9.3-1.4.7-3.6 1-4.9.3-1.3.8-4.9 1.2-8 .3-3.1.8-6.5 1-7.6.5-2.6.5-31.3-.1-38.8-.3-5.2-1.1-12.1-2-18.2-.2-1.1-.6-4.2-1-6.9-1.4-11-7.9-33.5-13.8-48.1-5.7-14.2-17.6-33.5-28.9-47-24.2-28.9-55.1-49.5-100.3-66.7-16.8-6.4-48.7-14.5-74-18.7-11.4-1.9-14.5-2.4-26-3.6-2.7-.3-6.8-.8-9-1.1-2.2-.3-5.8-.7-8-.9-2.2-.1-8.3-.6-13.5-1-5.2-.3-11.7-.9-14.5-1.2-10.8-1-396.4-1-396.8.1zm362.3 156c17.6 1.6 19.5 1.8 31 3.6 25.9 4 53.1 15 65.5 26.4 12.8 11.7 17.4 17.8 23 30 6.8 14.9 9.5 29.7 9 50.6-.3 15.4-.4 16.1-3.6 28.4-6.5 25.4-23.7 45.4-49.1 57-8.4 3.8-25 9.4-30.6 10.2-2 .3-4.5.7-5.4 1-5.4 1.6-21.3 3.6-39.8 5-10.3.8-153.9 1.2-154.1.5-.3-1.1-.5-212.6-.3-213.2.4-.7 146.1-.3 154.4.5zm-11 362c14.8.8 16.6.9 28 2.1 7.6.7 30 4.4 31.1 5.1.4.2 2 .6 3.6.8 7.1 1 25 7.1 37.3 12.7 7.3 3.4 23.1 14.3 29.6 20.6 14.8 14.3 23.7 31.3 28 53.5 3.1 15.7 2.2 47.5-1.7 65.7-.7 3.1-1.3 6.1-1.5 6.6-.1.6-1.6 5.3-3.4 10.5-9.5 27.6-26.9 47.7-53 61.2-6.4 3.3-8.3 4.1-18.5 7.8-11.5 4.2-32 8.7-48.5 10.5-3 .3-7.7.8-10.5 1.2-2.7.3-40.8.8-84.5 1l-79.5.4v-260l2.5-.3c5.1-.6 127.1 0 141 .6z"/></svg>